<svg width="186" height="33" viewBox="0 0 186 33" fill="none" xmlns="http://www.w3.org/2000/svg">
<path d="M44.1744 14.6999H50.0592V7.89795H52.5168V24.8934H50.0592V17.1224H44.1744V24.8934H41.7168V7.89795H44.1744V14.6999Z" fill="black"/>
<path d="M56.4434 16.8849C56.4434 14.4529 58.4114 12.5149 60.8594 12.5149H62.8178C65.2754 12.5149 67.2338 14.4624 67.2338 16.8849V20.5519C67.2338 22.9839 65.2754 24.9029 62.8178 24.9029H60.8594C58.4018 24.9029 56.4434 22.9839 56.4434 20.5519V16.8849ZM64.7858 20.5519V16.8849C64.7858 15.7924 63.9314 14.9469 62.8178 14.9469H60.8594C59.7554 14.9469 58.8914 15.7924 58.8914 16.8849V20.5519C58.8914 21.6444 59.7458 22.4424 60.8594 22.4709H62.8178C63.9218 22.4709 64.7858 21.6444 64.7858 20.5519Z" fill="black"/>
<path d="M81.9602 22.4709V24.9029H71.1602V22.4709H75.2114V10.0829H71.1602V7.65088H77.6594V22.4614H81.9602V22.4709Z" fill="black"/>
<path d="M96.677 24.9029H94.2193V23.5349L92.1842 24.8934H90.293C87.8642 24.8934 85.877 22.9269 85.877 20.5234V16.8849C85.877 14.4529 87.8642 12.5149 90.293 12.5149H92.1842L94.2193 13.8734V7.6604H96.677V24.9029ZM90.3026 22.4709H91.4354L94.229 20.5994V16.8089L91.4354 14.9374H90.3026C89.2274 14.9374 88.3346 15.8114 88.3346 16.8754V20.5139C88.3346 21.5969 89.2178 22.4709 90.3026 22.4709Z" fill="black"/>
<path d="M103.061 13.2464V24.903H100.603V7.89795H103.061L106.008 14.2344L108.955 7.89795H111.413V24.8934H108.955V13.2464L106.67 18.0534H105.345L103.061 13.2464Z" fill="black"/>
<path d="M117.019 29.9949L119.275 23.9244L115.32 12.5149H117.921L120.6 20.3049L123.499 12.5149H126.12L119.64 29.9949H117.019Z" fill="black"/>
<path d="M136.43 18.101H132.504V24.903H130.046V7.89795H136.43C138.888 7.89795 140.846 9.83595 140.846 12.2679V13.7215C140.846 16.1535 138.878 18.101 136.43 18.101ZM136.43 15.6689C137.534 15.6689 138.398 14.8235 138.398 13.7215V12.2679C138.398 11.1754 137.544 10.3204 136.43 10.3204H132.504V15.6594H136.43V15.6689Z" fill="black"/>
<path d="M155.563 24.9029H153.106V23.5349L151.07 24.8934H149.179C146.75 24.8934 144.763 22.9269 144.763 20.5234V16.8849C144.763 14.4529 146.75 12.5149 149.179 12.5149H151.07L153.106 13.8734V12.5149H155.563V24.9029ZM149.189 22.4709H150.322L153.115 20.5994V16.8089L150.322 14.9374H149.189C148.114 14.9374 147.221 15.8114 147.221 16.8754V20.5139C147.221 21.5969 148.104 22.4709 149.189 22.4709Z" fill="black"/>
<path d="M161.947 20.8179V21.3024C161.947 21.9864 162.581 22.4709 163.637 22.4709H166.113C167.265 22.4709 167.832 22.0814 167.832 21.4734C167.832 18.7279 159.662 20.5044 159.662 15.7924C159.662 13.8259 161.256 12.5149 163.589 12.5149H165.941C168.149 12.5149 169.867 14.0919 169.867 16.1344V16.3529H167.409V16.1344C167.409 15.4504 166.795 14.9469 165.941 14.9469H163.589C162.561 14.9469 162.12 15.2889 162.12 15.7924C162.12 17.7589 170.289 16.5239 170.289 21.4734C170.289 23.5159 168.6 24.8934 166.123 24.8934H163.646C161.265 24.8934 159.499 23.3639 159.499 21.3024V20.8179H161.947Z" fill="black"/>
<path d="M176.664 20.8179V21.3024C176.664 21.9864 177.297 22.4709 178.353 22.4709H180.83C181.982 22.4709 182.549 22.0814 182.549 21.4734C182.549 18.7279 174.379 20.5044 174.379 15.7924C174.379 13.8259 175.973 12.5149 178.305 12.5149H180.657C182.865 12.5149 184.584 14.0919 184.584 16.1344V16.3529H182.126V16.1344C182.126 15.4504 181.512 14.9469 180.657 14.9469H178.305C177.278 14.9469 176.837 15.2889 176.837 15.7924C176.837 17.7589 185.006 16.5239 185.006 21.4734C185.006 23.5159 183.317 24.8934 180.84 24.8934H178.363C175.982 24.8934 174.216 23.3639 174.216 21.3024V20.8179H176.664Z" fill="black"/>
<path d="M28.5745 32.9304H6.12965C3.29765 32.9304 0.993652 30.6599 0.993652 27.8479V5.63694C0.993652 2.83444 3.28805 0.554443 6.12965 0.554443H28.5745C31.4065 0.554443 33.7105 2.82494 33.7105 5.63694V27.8479C33.7105 30.6599 31.4065 32.9304 28.5745 32.9304Z" fill="black"/>
<path d="M21.0675 24.808L17.3139 18.8135L13.4259 24.808L10.4403 22.566L15.0099 17.417L8.81787 16.068L9.96987 12.686L15.9891 15.0895L15.4323 8.66748H19.2723L18.7155 15.0895L24.8211 12.762L25.8867 16.0965L19.6083 17.4075L24.1299 22.604L21.0675 24.808Z" fill="white"/>
</svg>
