<svg width="285" height="51" viewBox="0 0 285 51" fill="none" xmlns="http://www.w3.org/2000/svg">
<path d="M67.0781 22.4456H76.1663V11.9409H79.9617V38.188H76.1663V26.1868H67.0781V38.188H63.2827V11.9409H67.0781V22.4456Z" fill="white"/>
<path d="M86.0249 25.8196C86.0249 22.0638 89.0642 19.0708 92.8448 19.0708H95.8692C99.6646 19.0708 102.689 22.0784 102.689 25.8196V31.4828C102.689 35.2386 99.6646 38.2023 95.8692 38.2023H92.8448C89.0494 38.2023 86.0249 35.2386 86.0249 31.4828V25.8196ZM98.9085 31.4828V25.8196C98.9085 24.1324 97.589 22.8267 95.8692 22.8267H92.8448C91.1398 22.8267 89.8055 24.1324 89.8055 25.8196V31.4828C89.8055 33.17 91.125 34.4024 92.8448 34.4464H95.8692C97.5742 34.4464 98.9085 33.17 98.9085 31.4828Z" fill="white"/>
<path d="M125.432 34.4466V38.2025H108.753V34.4466H115.01V15.3152H108.753V11.5593H118.79V34.432H125.432V34.4466Z" fill="white"/>
<path d="M148.161 38.2027H144.366V36.0901L141.223 38.1881H138.302C134.551 38.1881 131.482 35.1511 131.482 31.4392V25.8201C131.482 22.0642 134.551 19.0713 138.302 19.0713H141.223L144.366 21.1693V11.5742H148.161V38.2027ZM138.317 34.4469H140.067L144.381 31.5566V25.7027L140.067 22.8125H138.317C136.657 22.8125 135.278 24.1622 135.278 25.8054V31.4246C135.278 33.0971 136.642 34.4469 138.317 34.4469Z" fill="white"/>
<path d="M158.02 20.2009V38.2027H154.224V11.9409H158.02L162.571 21.7267L167.123 11.9409H170.918V38.188H167.123V20.2009L163.594 27.6246H161.548L158.02 20.2009Z" fill="white"/>
<path d="M179.576 46.0661L183.06 36.6911L176.952 19.0708H180.969L185.106 31.1013L189.583 19.0708H193.631L183.623 46.0661H179.576Z" fill="white"/>
<path d="M209.554 27.698H203.49V38.2027H199.695V11.9409H209.554C213.349 11.9409 216.374 14.9339 216.374 18.6897V20.9345C216.374 24.6903 213.335 27.698 209.554 27.698ZM209.554 23.9421C211.259 23.9421 212.593 22.6363 212.593 20.9345V18.6897C212.593 17.0025 211.274 15.6821 209.554 15.6821H203.49V23.9274H209.554V23.9421Z" fill="white"/>
<path d="M239.101 38.2023H235.306V36.0896L232.163 38.1876H229.242C225.491 38.1876 222.422 35.1506 222.422 31.4388V25.8196C222.422 22.0638 225.491 19.0708 229.242 19.0708H232.163L235.306 21.1688V19.0708H239.101V38.2023ZM229.257 34.4464H231.007L235.321 31.5561V25.7023L231.007 22.812H229.257C227.597 22.812 226.218 24.1618 226.218 25.805V31.4241C226.218 33.0966 227.582 34.4464 229.257 34.4464Z" fill="white"/>
<path d="M248.961 31.8936V32.6418C248.961 33.6981 249.939 34.4464 251.57 34.4464H255.395C257.174 34.4464 258.049 33.8449 258.049 32.9059C258.049 28.6659 245.432 31.4094 245.432 24.1324C245.432 21.0954 247.893 19.0708 251.496 19.0708H255.128C258.538 19.0708 261.192 21.5062 261.192 24.6606V24.998H257.397V24.6606C257.397 23.6042 256.448 22.8267 255.128 22.8267H251.496C249.91 22.8267 249.228 23.3548 249.228 24.1324C249.228 27.1694 261.844 25.2621 261.844 32.9059C261.844 36.0602 259.235 38.1876 255.41 38.1876H251.585C247.908 38.1876 245.18 35.8255 245.18 32.6418V31.8936H248.961Z" fill="white"/>
<path d="M271.688 31.8936V32.6418C271.688 33.6981 272.667 34.4464 274.298 34.4464H278.123C279.902 34.4464 280.776 33.8449 280.776 32.9059C280.776 28.6659 268.16 31.4094 268.16 24.1324C268.16 21.0954 270.621 19.0708 274.223 19.0708H277.856C281.266 19.0708 283.92 21.5062 283.92 24.6606V24.998H280.124V24.6606C280.124 23.6042 279.175 22.8267 277.856 22.8267H274.223C272.637 22.8267 271.955 23.3548 271.955 24.1324C271.955 27.1694 284.572 25.2621 284.572 32.9059C284.572 36.0602 281.963 38.1876 278.138 38.1876H274.312C270.636 38.1876 267.908 35.8255 267.908 32.6418V31.8936H271.688Z" fill="white"/>
<path d="M42.9861 50.5999H8.3234C3.94979 50.5999 0.391602 47.0934 0.391602 42.7507V8.44903C0.391602 4.12098 3.93497 0.599854 8.3234 0.599854H42.9861C47.3597 0.599854 50.9179 4.10631 50.9179 8.44903V42.7507C50.9179 47.0934 47.3597 50.5999 42.9861 50.5999Z" fill="black"/>
<path d="M31.3923 38.0555L25.5954 28.7979L19.591 38.0555L14.9802 34.5931L22.0372 26.6412L12.4746 24.5579L14.2537 19.3349L23.5495 23.0467L22.6896 13.1289H28.6199L27.76 23.0467L37.1892 19.4523L38.8349 24.6019L29.1388 26.6266L36.1218 34.6518L31.3923 38.0555Z" fill="white"/>
</svg>
